<svg width="87" height="80" viewBox="0 0 87 80" fill="none" xmlns="http://www.w3.org/2000/svg">
<path d="M64.6416 15.8712C62.585 17.2667 62.0491 20.0651 63.4445 22.1216C64.84 24.1781 67.6383 24.7141 69.6949 23.3186C71.7514 21.9232 72.2874 19.1248 70.8919 17.0683C69.4965 15.0117 66.6981 14.4758 64.6416 15.8712Z" fill="#8E4DD5"/>
<path d="M30.5542 38.7223C29.4117 39.4975 29.1139 41.0522 29.8892 42.1947C30.6644 43.3373 32.2191 43.635 33.3616 42.8598C34.5041 42.0845 34.8019 40.5299 34.0266 39.3873C33.2514 38.2448 31.6967 37.9471 30.5542 38.7223Z" fill="#8E4DD5"/>
<path d="M27.9496 20.9243L35.4022 19.4406L39.5345 13.0636L41.0181 20.5162L47.3952 24.6484L39.9428 26.1324L35.8103 32.5091L34.3267 25.0565L27.9496 20.9243Z" fill="#FFCC00"/>
<path d="M2.83018 35.9973L9.85054 36.7065L15.2534 32.1681L14.5443 39.1884L19.0827 44.5913L12.0624 43.8825L6.65942 48.4205L7.36859 41.4002L2.83018 35.9973Z" fill="#3897FF"/>
<path d="M22.5293 73.2215L26.3749 71.2051L27.6108 67.0426L29.6271 70.8884L33.7897 72.124L29.9441 74.1404L28.7083 78.303L26.6919 74.4575L22.5293 73.2215Z" fill="#00A98F"/>
</svg>
