<svg width="54" height="47" viewBox="0 0 54 47" fill="none" xmlns="http://www.w3.org/2000/svg">
<mask id="mask0_1312_115720" style="mask-type:alpha" maskUnits="userSpaceOnUse" x="0" y="0" width="54" height="47">
<path d="M29.2807 20.375H23.8252C23.8252 20.375 23.0459 23.8359 26.553 23.8359C30.0601 23.8359 29.2807 20.375 29.2807 20.375Z" fill="#3E3E3E"/>
<path d="M36.5562 23.6121C36.5562 23.6121 38.2003 30.6819 43.9547 29.2732C48.4332 28.1769 44.7768 18.822 47.654 15.7737C49.1295 14.2104 51.7643 14.9028 51.7643 14.9028" stroke="#212121" stroke-width="2.67568" stroke-linecap="round"/>
<path d="M16.5464 23.6121C16.5464 23.6121 14.9023 30.6819 9.14783 29.2732C4.6693 28.1769 8.32577 18.822 5.44855 15.7737C3.97301 14.2104 1.33824 14.9028 1.33824 14.9028" stroke="#3E3E3E" stroke-width="2.67568" stroke-linecap="round"/>
<path d="M15.8891 16.912C15.8891 16.912 13.707 1.33782 26.3643 1.33789C39.0216 1.33796 37.2755 16.912 37.2755 16.912" stroke="#3E3E3E" stroke-width="2.67568" stroke-linecap="round"/>
<path d="M35.946 16.7471C35.855 17.4804 36.3756 18.1486 37.1088 18.2396C37.842 18.3307 38.5103 17.8101 38.6013 17.0769L35.946 16.7471ZM26.5503 2.67573C29.4156 2.67575 31.3359 3.54673 32.6634 4.75921C34.0181 5.99651 34.8633 7.68944 35.3709 9.4883C35.8776 11.2838 36.0247 13.1041 36.0403 14.4936C36.0481 15.184 36.0234 15.7575 35.9971 16.1545C35.984 16.3528 35.9706 16.5064 35.9607 16.6078C35.9558 16.6585 35.9518 16.6961 35.9492 16.7196C35.9479 16.7314 35.9469 16.7397 35.9464 16.7443C35.9461 16.7466 35.9459 16.748 35.9459 16.7485C35.9458 16.7487 35.9458 16.7487 35.9459 16.7485C35.9459 16.7484 35.9459 16.7481 35.9459 16.748C35.946 16.7476 35.946 16.7471 37.2737 16.912C38.6013 17.0769 38.6014 17.0763 38.6015 17.0756C38.6015 17.0754 38.6016 17.0747 38.6017 17.0741C38.6018 17.0729 38.602 17.0715 38.6022 17.0698C38.6026 17.0665 38.6031 17.0623 38.6037 17.0571C38.6049 17.0468 38.6065 17.0327 38.6085 17.015C38.6124 16.9796 38.6177 16.9298 38.6239 16.8664C38.6362 16.7396 38.6519 16.5586 38.667 16.3311C38.697 15.8764 38.7245 15.2332 38.7158 14.4635C38.6986 12.9329 38.5381 10.8597 37.946 8.76165C37.355 6.66698 36.3104 4.46639 34.4678 2.78354C32.5981 1.07587 30.0137 6.99759e-05 26.5503 5.05447e-05L26.5503 2.67573Z" fill="#212121"/>
<path d="M26.5503 28.3037V45.338" stroke="#3E3E3E" stroke-width="2.67568" stroke-linecap="round"/>
<path d="M32.8078 25.9912C32.8078 25.9912 30.6585 40.7001 38.8259 40.7001C46.9933 40.7001 46.1335 33.1228 46.1335 33.1228" stroke="#212121" stroke-width="2.67568" stroke-linecap="round"/>
<path d="M20.2928 25.9912C20.2928 25.9912 22.4421 40.7001 14.2747 40.7001C6.10733 40.7001 6.96705 33.1228 6.96705 33.1228" stroke="#3E3E3E" stroke-width="2.67568" stroke-linecap="round"/>
<ellipse cx="31.7566" cy="18.2075" rx="1.60086" ry="1.73046" fill="#212121"/>
<ellipse cx="21.3484" cy="18.2075" rx="1.60086" ry="1.73046" fill="#3E3E3E"/>
</mask>
<g mask="url(#mask0_1312_115720)">
<rect x="-1.89502" y="-2.85449" width="28.4747" height="52.4545" fill="#FF474D"/>
<rect x="26.5835" y="-2.85449" width="28.4747" height="52.4545" fill="#D61414"/>
</g>
</svg>
